<?xml version="1.0" encoding="UTF-8"?>
<svg version="1.1" xmlns="http://www.w3.org/2000/svg" width="512" height="512">
<path d="M0 0 C-0.03171799 1.11241058 -0.06343597 2.22482117 -0.09611511 3.37094116 C-0.86389464 30.62992037 -1.39276663 57.88591643 -1.68133545 85.15428162 C-1.82625456 98.34317713 -2.04441316 111.52272447 -2.44482422 124.70654297 C-2.7942819 136.21915879 -2.9963356 147.72410656 -3.03257275 159.24211121 C-3.05657677 165.32716189 -3.14662669 171.39249911 -3.41439819 177.47210693 C-3.48091599 179.23700879 -3.48091599 179.23700879 -3.54877758 181.03756523 C-3.63368437 183.18653197 -3.73843939 185.33490766 -3.87246418 187.48137093 C-4.32322069 199.9852578 -1.40684839 210.00585985 1 223 C14.2 236.2 27.4 249.4 41 263 C41.33 210.53 41.66 158.06 42 104 C46.82948747 107.21965832 49.85079138 109.74620281 53.25 114.1875 C53.71962158 114.79770996 54.18924316 115.40791992 54.6730957 116.03662109 C74.95809769 143.01298631 85.44791709 176.63119895 85.4375 210.25 C85.4385675 210.98822998 85.43963501 211.72645996 85.44073486 212.48706055 C85.39126294 236.36979109 80.15614127 259.96807476 69.09619141 281.23291016 C67.46145591 284.38590721 67.46145591 284.38590721 67.10742188 287.85107422 C68.41219961 290.99239085 70.67032179 293.07833988 73.05859375 295.421875 C73.56294449 295.92672424 74.06729523 296.43157349 74.58692932 296.95172119 C75.65177454 298.01423066 76.7203029 299.07306 77.79223633 300.12841797 C79.43688782 301.74939663 81.06773387 303.3833684 82.69726562 305.01953125 C83.73358384 306.05027522 84.77066734 307.08025045 85.80859375 308.109375 C86.5430497 308.84519806 86.5430497 308.84519806 87.29234314 309.59588623 C89.70122631 312.24147032 89.70122631 312.24147032 93 313 C119.81791326 280.65844726 128.5512946 234.77641524 125.79785156 194.00683594 C121.65764197 150.27684856 99.51618255 107.47434026 65.71875 79.21875 C64.54536722 78.26625641 63.36830876 77.31827188 62.1875 76.375 C61.66760498 75.95589355 61.14770996 75.53678711 60.61206055 75.10498047 C60.07363525 74.68619629 59.53520996 74.26741211 58.98046875 73.8359375 C58.39982666 73.37606445 57.81918457 72.91619141 57.22094727 72.44238281 C54.91064046 70.83954633 54.91064046 70.83954633 51.68334961 69.67480469 C47.85453194 67.95965305 44.48111543 66.4462631 42 63 C39.80645225 55.81606438 40.78610074 47.89180525 41.1875 40.5 C41.25276049 38.41684643 41.31206724 36.3334973 41.36523438 34.25 C41.50801709 29.16181849 41.731953 24.0830593 42 19 C47.87642181 19.94981737 52.58764699 22.63063705 57.8125 25.375 C59.34922363 26.18094604 59.34922363 26.18094604 60.91699219 27.00317383 C73.98957793 33.98265724 85.79466701 42.30273999 97 52 C98.18916016 53.02287109 98.18916016 53.02287109 99.40234375 54.06640625 C101.97902981 56.33405702 104.49677349 58.65142686 107 61 C107.52464844 61.49064941 108.04929687 61.98129883 108.58984375 62.48681641 C142.92183643 94.86632567 165.00771416 140.09573303 170 187 C170.11085938 187.9796875 170.22171875 188.959375 170.3359375 189.96875 C175.33652068 242.40729789 160.62970566 293.65080185 129.51049805 335.93041992 C127.31655805 338.93640494 125.16305891 341.97171752 123 345 C136.86 358.86 150.72 372.72 165 387 C161.0785569 391.57501695 157.20779837 395.93250354 152.9453125 400.15234375 C152.39890106 400.69734024 151.85248962 401.24233673 151.28952026 401.80384827 C149.57037942 403.51746118 147.84776796 405.22753444 146.125 406.9375 C144.94768362 408.10979204 143.77059826 409.28231614 142.59375 410.45507812 C139.73182511 413.30606982 136.86678543 416.15389615 134 419 C129.19065873 414.98794956 124.65297486 410.79575779 120.23529911 406.35834694 C119.58901695 405.71321862 118.94273478 405.0680903 118.27686831 404.40341264 C116.11816248 402.24734756 113.96303342 400.08774324 111.80787659 397.9281311 C110.24287403 396.36356477 108.67765169 394.79921827 107.11222881 393.23507249 C102.81599989 388.94107852 98.5228935 384.64397449 94.23029053 380.34635615 C90.07469099 376.18688162 85.9167368 372.0297631 81.75883884 367.8725863 C73.25584285 359.37090277 64.75517228 350.8668977 56.25583076 342.36156082 C47.8420584 333.94186869 39.42725033 325.52321388 31.01106071 317.10593796 C30.48750281 316.58231131 29.9639449 316.05868467 29.42452161 315.51919055 C26.76556203 312.85989263 24.10658398 310.2006132 21.44759881 307.54134087 C2.62069817 288.71234059 -16.2038836 269.88102356 -35.02709961 251.04833984 C-53.31205716 232.75419594 -71.59806625 214.46110417 -89.88549805 196.16943359 C-90.4493305 195.60546962 -91.01316295 195.04150564 -91.59408123 194.46045184 C-97.25638961 188.79682494 -102.91871934 183.13321939 -108.58106473 177.46962949 C-120.1156141 165.932544 -131.65002088 154.39531596 -143.18434143 142.85800171 C-143.71465521 142.32755064 -144.244969 141.79709956 -144.7913529 141.25057421 C-180.19662429 105.83610427 -215.59856145 70.41830133 -251 35 C-250.06322155 33.89666299 -249.12492192 32.79461745 -248.18600464 31.69309998 C-247.66365675 31.07925666 -247.14130886 30.46541334 -246.60313225 29.83296871 C-244.16907233 27.04994462 -241.57173415 24.44780087 -238.9453125 21.84765625 C-238.39890106 21.30265976 -237.85248962 20.75766327 -237.28952026 20.19615173 C-235.57037942 18.48253882 -233.84776796 16.77246556 -232.125 15.0625 C-230.94768362 13.89020796 -229.77059826 12.71768386 -228.59375 11.54492188 C-225.73182511 8.69393018 -222.86678543 5.84610385 -220 3 C-214.75581655 7.37585251 -209.89698045 11.99027796 -205.10864258 16.85717773 C-204.35326706 17.62043869 -203.59789154 18.38369965 -202.81962585 19.17008972 C-201.19102547 20.81579886 -199.56347222 22.46254478 -197.93686867 24.11022758 C-194.48033565 27.60894693 -191.01437756 31.09826488 -187.54895306 34.58817387 C-181.10538883 41.07745266 -174.66577267 47.57053087 -168.24243164 54.07983398 C-163.76473235 58.61673219 -159.27508188 63.14148939 -154.77713585 67.65831184 C-153.06493282 69.38229149 -151.35728427 71.11080659 -149.65424538 72.84383965 C-147.28186831 75.25697313 -144.89460785 77.6543567 -142.50317383 80.04858398 C-141.79919464 80.7721106 -141.09521545 81.49563721 -140.36990356 82.24108887 C-139.71821701 82.88734726 -139.06653046 83.53360565 -138.39509583 84.19944763 C-137.83267591 84.76777534 -137.27025599 85.33610304 -136.69079304 85.92165279 C-135.03489746 87.23055567 -135.03489746 87.23055567 -132.90418625 86.7391634 C-130.79771339 85.92147677 -129.07438779 84.93189912 -127.18920898 83.68457031 C-126.44566666 83.19648392 -125.70212433 82.70839752 -124.93605042 82.20552063 C-124.13086472 81.66848007 -123.32567902 81.13143951 -122.49609375 80.578125 C-121.64260849 80.01510178 -120.78912323 79.45207855 -119.90977478 78.87199402 C-117.08177546 77.00382862 -114.25955544 75.12712996 -111.4375 73.25 C-109.44956573 71.93339694 -107.46144438 70.6170763 -105.47314453 69.30102539 C-89.40750966 58.6536302 -73.42745043 47.88007401 -57.45889282 37.08790588 C-46.07804604 29.39690667 -34.68666262 21.72189635 -23.27008057 14.08401489 C-21.39162967 12.82632424 -19.51429676 11.56696209 -17.63812256 10.30587769 C-15.05202343 8.56801279 -12.46211786 6.83597911 -9.87109375 5.10546875 C-9.09935318 4.58515076 -8.32761261 4.06483276 -7.53248596 3.52874756 C-6.82881393 3.06059631 -6.12514191 2.59244507 -5.40014648 2.11010742 C-4.78815903 1.70016037 -4.17617157 1.29021332 -3.54563904 0.86784363 C-2 0 -2 0 0 0 Z " fill="#000000" transform="translate(299,45)"/>
<path d="M0 0 C2.09575921 1.50461048 2.09575921 1.50461048 4.20723438 3.48599148 C5.42393872 4.61489556 5.42393872 4.61489556 6.66522294 5.76660579 C7.54557684 6.60267724 8.42593074 7.43874869 9.33296204 8.30015564 C10.2764512 9.18237071 11.21994037 10.06458578 12.19202012 10.97353464 C14.81236143 13.4255947 17.42001981 15.89077783 20.02521574 18.3589114 C21.69336873 19.93732734 23.36500219 21.5119656 25.03787041 23.08538246 C47.02807993 43.769489 68.74164625 64.74245271 90.37548542 85.79836178 C93.1308922 88.47884167 95.88702907 91.1585684 98.64379883 93.83764648 C99.32881272 94.50341293 100.01382661 95.16917937 100.71959849 95.85512055 C111.72590355 106.54354313 122.87347723 117.07134739 134.08592138 127.54285007 C145.65540075 138.35412671 157.05658315 149.3238383 168.32577199 160.44783407 C174.63742732 166.66961659 180.99773887 172.80536725 187.55776405 178.76563835 C211.91604016 200.95947148 231.59194757 220.3333167 233.21151983 254.73964558 C233.85652098 273.87130755 232.35296765 293.0240892 230 312 C212.78960103 303.48388817 196.9570625 291.2959813 181.09030151 280.55184937 C170.74260716 273.54633427 160.38164886 266.56439637 149.9453125 259.69140625 C149.04266159 259.09571335 148.14001068 258.50002045 147.21000671 257.88627625 C142.63847372 254.87435419 138.05281625 251.88805841 133.43969727 248.94018555 C124.17269391 242.98186332 115.41244809 236.83551455 106.95703125 229.765625 C78.90058592 206.91125157 53.78670382 205.32663165 18.94522095 207.75247192 C6.22593535 208.54508077 -3.23510823 205.17599043 -13.1953125 197.25390625 C-21.78917103 189.39526375 -26.46095501 178.55567145 -27.18825722 167.01199913 C-27.2663215 163.50687591 -27.28166745 160.00672591 -27.2746582 156.50073242 C-27.2790138 155.15928364 -27.28419975 153.81783733 -27.29014587 152.47639465 C-27.30345767 148.85637423 -27.30412321 145.23645871 -27.30158257 141.6164186 C-27.3005073 138.58250391 -27.30541051 135.54860997 -27.310188 132.51469976 C-27.32125665 125.34987172 -27.32173584 118.18509611 -27.31567383 111.02026367 C-27.30963899 103.65677337 -27.32193862 96.29347438 -27.3432439 88.9300167 C-27.36092475 82.58319109 -27.36685099 76.23642602 -27.36360615 69.88957673 C-27.36180309 66.10990172 -27.36433072 62.33036313 -27.37832069 58.55071068 C-27.39100022 54.99239092 -27.38886068 51.43436676 -27.37590981 47.87605095 C-27.37245936 45.96760138 -27.38364759 44.05914234 -27.39547729 42.15072632 C-27.30901211 27.79421586 -24.05476082 16.04245507 -13.9375 5.5625 C-6.09133773 -1.80632921 -6.09133773 -1.80632921 0 0 Z " fill="#000000" transform="translate(69,155)"/>
</svg>
